<?xml version="1.0" standalone="no"?><!DOCTYPE svg PUBLIC "-//W3C//DTD SVG 1.1//EN" "http://www.w3.org/Graphics/SVG/1.1/DTD/svg11.dtd"><svg t="1660547503121" class="icon" viewBox="0 0 1024 1024" version="1.1" xmlns="http://www.w3.org/2000/svg" p-id="6040" xmlns:xlink="http://www.w3.org/1999/xlink" width="200" height="200"><defs><style type="text/css">@font-face { font-family: feedback-iconfont; src: url("//at.alicdn.com/t/font_1031158_u69w8yhxdu.woff2?t=1630033759944") format("woff2"), url("//at.alicdn.com/t/font_1031158_u69w8yhxdu.woff?t=1630033759944") format("woff"), url("//at.alicdn.com/t/font_1031158_u69w8yhxdu.ttf?t=1630033759944") format("truetype"); }
</style></defs><path d="M512 512m-512 0a512 512 0 1 0 1024 0 512 512 0 1 0-1024 0Z" fill="#FFE5BD" p-id="6041"></path><path d="M492.010667 812.010667c-10.282667 0-20.416-0.533333-30.4-1.536l3.989333-39.786667c8.682667 0.853333 17.493333 1.322667 26.410667 1.322667 143.36 0 259.989333-116.650667 259.989333-260.010667l40-3.626667V512c0 165.44-134.570667 300.010667-300.010667 300.010667z m-149.056-39.616A300.928 300.928 0 0 1 192 512c0-63.146667 19.370667-123.562667 56.042667-174.677333l32.469333 23.317333A258.346667 258.346667 0 0 0 232 512c0 92.949333 50.133333 179.434667 130.837333 225.706667l-19.882666 34.688z m385.493333-368.746667a260.885333 260.885333 0 0 0-236.458667-151.658667c-46.421333 0-91.989333 12.416-131.712 35.818667l-20.309333-34.453333a299.306667 299.306667 0 0 1 152.021333-41.365334c116.928 0 224 68.693333 272.810667 174.976l-36.352 16.682667zM371.989333 512a120 120 0 1 0 240 0 120 120 0 0 0-240 0z" fill="#FF9A00" p-id="6042"></path></svg>