<?xml version="1.0" standalone="no"?><!DOCTYPE svg PUBLIC "-//W3C//DTD SVG 1.1//EN" "http://www.w3.org/Graphics/SVG/1.1/DTD/svg11.dtd"><svg t="1660547514877" class="icon" viewBox="0 0 1024 1024" version="1.1" xmlns="http://www.w3.org/2000/svg" p-id="6323" xmlns:xlink="http://www.w3.org/1999/xlink" width="200" height="200"><defs><style type="text/css">@font-face { font-family: feedback-iconfont; src: url("//at.alicdn.com/t/font_1031158_u69w8yhxdu.woff2?t=1630033759944") format("woff2"), url("//at.alicdn.com/t/font_1031158_u69w8yhxdu.woff?t=1630033759944") format("woff"), url("//at.alicdn.com/t/font_1031158_u69w8yhxdu.ttf?t=1630033759944") format("truetype"); }
</style></defs><path d="M512 512m-512 0a512 512 0 1 0 1024 0 512 512 0 1 0-1024 0Z" fill="#E8FFDF" p-id="6324"></path><path d="M205.589333 784.426667c0-0.981333-2.24-3.626667-3.52-4.138667a3.093333 3.093333 0 0 1-1.472-1.365333 3.818667 3.818667 0 0 0-1.685333-1.429334 4.330667 4.330667 0 0 1-1.962667-2.090666c-0.341333-0.874667-0.917333-1.557333-1.194666-1.557334-0.277333 0-0.874667-0.512-1.365334-1.194666-0.469333-0.64-1.194667-1.194667-1.621333-1.194667-0.725333 0-0.768-0.490667-0.768-17.216 0-16.661333 0.042667-17.194667 0.768-17.194667 0.512 0 0.832-0.362667 0.981333-1.109333a8.234667 8.234667 0 0 1 1.642667-2.602667 10.154667 10.154667 0 0 0 1.408-1.770666c0-0.469333 2.048-2.922667 2.432-2.922667 0.490667 0 1.770667-1.301333 2.368-2.346667 0.234667-0.490667 0.768-0.853333 1.152-0.853333 0.426667 0 1.557333-0.704 2.56-1.6 1.237333-1.109333 2.176-1.6 3.008-1.6 0.874667 0 1.706667-0.469333 2.922667-1.6l1.706666-1.6H513.28l1.813333 1.6c1.194667 1.066667 2.197333 1.6 2.965334 1.6 0.661333 0 1.664 0.490667 2.517333 1.216 0.704 0.682667 1.984 1.493333 2.794667 1.792 0.789333 0.32 1.429333 0.768 1.429333 0.917333 0 0.554667 1.856 2.346667 2.730667 2.645334 0.469333 0.149333 0.874667 0.426667 0.874666 0.64 0 0.213333 0.874667 1.514667 1.962667 2.922666 1.066667 1.386667 2.197333 3.285333 2.432 4.117334a3.733333 3.733333 0 0 0 1.6 2.24c1.813333 1.045333 2.090667 3.328 1.92 15.914666-0.106667 11.2-0.32 12.8-1.706667 12.8-0.96 0-1.813333 1.237333-1.813333 2.730667 0 1.152-0.32 1.706667-1.493333 2.837333a9.642667 9.642667 0 0 0-2.048 2.709334 2.88 2.88 0 0 1-1.642667 1.642666 4.48 4.48 0 0 0-1.856 1.642667c-0.384 0.682667-1.024 1.237333-1.386667 1.237333-0.917333 0-3.157333 2.773333-3.157333 3.882667v0.917333h-157.802667c-144.64 0-157.802667-0.042667-157.802666-0.64z m377.6-0.213334c0-1.002667-2.346667-3.968-3.157333-3.968-1.066667 0-2.048-1.322667-2.688-3.605333-0.512-1.792-0.853333-2.304-1.706667-2.666667-0.810667-0.277333-1.216-0.768-1.365333-1.706666a252.288 252.288 0 0 1-0.277333-15.744c0-12.394667-0.085333-14.677333-0.64-16.149334-0.362667-0.96-0.853333-1.706667-1.066667-1.706666-0.789333 0-1.578667-3.008-1.450667-5.568 0.106667-3.882667 0.064-4.053333-1.002666-4.053334-1.322667 0-1.728-0.64-1.962667-3.477333-0.170667-1.962667-0.426667-2.837333-1.408-3.989333a9.792 9.792 0 0 1-1.514667-3.136c-0.277333-1.066667-0.725333-1.749333-1.365333-2.069334-1.429333-0.725333-2.005333-1.685333-2.005333-3.477333 0-1.962667-0.213333-2.325333-1.834667-2.986667-1.6-0.64-1.749333-1.450667-1.749333-10.090666 0-7.296 0.192-9.173333 1.024-9.173334 0.96 0 2.176-1.557333 2.176-2.794666 0-1.92 1.024-3.989333 1.962666-3.989334 0.597333 0 0.917333-0.426667 1.28-1.706666 0.704-2.816 1.472-4.224 2.304-4.501334 0.490667-0.128 0.896-0.554667 0.896-0.917333l0.149334-2.517333c0.128-2.24 0.405333-2.773333 1.450666-2.773334 1.024 0 1.557333-1.493333 1.557334-4.522666 0.042667-3.669333 0.96-7.104 2.197333-8.106667l1.024-0.853333-0.106667-12.16c-0.128-11.904-0.128-12.16-1.002666-13.013334-1.152-1.173333-2.133333-4.544-2.133334-7.424 0-2.624-0.384-3.712-1.856-4.949333-0.768-0.64-1.066667-1.408-1.28-3.285333-0.256-2.005333-0.490667-2.56-1.536-3.434667a4.352 4.352 0 0 1-1.493333-2.474667c-0.384-2.133333-0.981333-3.242667-1.984-3.690666-0.64-0.277333-1.045333-1.002667-1.365333-2.56-0.554667-2.432-1.429333-3.925333-2.261334-3.925334-0.938667 0-1.088-1.472-0.938666-8.874666 0.128-6.272 0.213333-7.082667 1.066666-8.597334 0.469333-0.96 1.066667-1.706667 1.301334-1.706666 0.213333 0 0.682667-0.64 1.002666-1.450667a19.349333 19.349333 0 0 1 1.706667-2.965333 11.733333 11.733333 0 0 0 1.621333-3.349334c0.32-1.28 0.661333-1.877333 1.301334-2.090666 1.258667-0.362667 1.536-0.874667 1.536-2.965334 0-1.386667 0.32-2.24 1.557333-3.989333 1.429333-2.090667 1.557333-2.410667 1.792-6.08 0.277333-4.48 0.682667-5.76 1.770667-6.08a1.877333 1.877333 0 0 0 1.024-1.152c0.128-0.490667 0.256-6.186667 0.256-12.586667 0-9.813333-0.128-11.946667-0.64-13.290666-0.362667-0.896-0.810667-1.6-1.066667-1.6-0.789333 0-1.493333-2.858667-1.493333-5.973334 0-3.157333 0-3.157333-1.216-3.562666-1.194667-0.426667-1.386667-0.853333-1.706667-3.946667a4.394667 4.394667 0 0 0-1.642667-3.050667c-0.917333-0.874667-1.450667-1.706667-1.450666-2.389333 0-1.450667-0.789333-3.050667-1.6-3.285333-0.384-0.128-1.066667-1.130667-1.557334-2.197334a25.493333 25.493333 0 0 0-3.413333-4.885333 29.44 29.44 0 0 1-3.050667-4.074667c-0.32-0.64-1.002667-1.322667-1.578666-1.493333a18.24 18.24 0 0 1-5.546667-5.034667c-0.277333-0.512-1.066667-1.066667-2.048-1.322666-0.917333-0.213333-1.792-0.789333-2.026667-1.322667-0.682667-1.237333-1.6-1.834667-2.858666-1.877333a2.218667 2.218667 0 0 1-1.664-0.832c-0.896-1.28-2.688-2.346667-3.925334-2.346667-0.725333 0-1.514667-0.490667-2.432-1.450667-1.216-1.322667-1.642667-1.493333-4.096-1.706666-2.24-0.256-2.88-0.490667-3.562666-1.344-1.301333-1.6-2.304-1.92-6.4-1.92-3.584 0-3.861333-0.064-6.506667-1.472l-2.730667-1.514667-59.157333-0.213333-59.093333-0.192-1.130667-1.322667a3.989333 3.989333 0 0 0-2.602667-1.557333c-1.066667-0.170667-2.005333-0.768-3.157333-1.92a13.717333 13.717333 0 0 0-2.048-1.834667 14.762667 14.762667 0 0 1-3.605333-4.885333c-0.149333-0.597333-0.597333-1.152-1.002667-1.28-0.384-0.128-1.024-0.725333-1.429333-1.322667-0.64-0.917333-0.768-2.154667-0.874667-8.789333-0.170667-6.613333-0.085333-7.850667 0.469333-8.682667 0.362667-0.554667 0.917333-1.002667 1.237334-1.002667 0.576 0 1.173333-1.642667 1.6-4.394666 0.170667-1.002667 0.533333-1.6 1.408-2.090667a2.944 2.944 0 0 0 1.408-1.792c0.469333-2.154667 1.472-4.053333 2.389333-4.437333 0.725333-0.32 1.002667-0.896 1.194667-2.282667 0.32-1.877333 1.493333-3.797333 2.346666-3.797333 0.341333 0 0.789333-0.853333 1.066667-1.92a11.52 11.52 0 0 1 1.664-3.370667 14.016 14.016 0 0 0 1.706667-2.794667 8.362667 8.362667 0 0 1 1.578666-2.282666 3.072 3.072 0 0 0 1.045334-2.133334c0-1.536 1.002667-3.349333 1.962666-3.626666 0.512-0.128 0.96-0.789333 1.237334-1.92 0.874667-3.2 1.28-3.968 2.24-4.202667 0.597333-0.149333 1.066667-0.725333 1.365333-1.557333a10.538667 10.538667 0 0 1 1.642667-2.837334c0.64-0.810667 1.152-1.770667 1.152-2.154666 0-1.493333 0.874667-3.114667 1.792-3.370667 1.045333-0.277333 1.408-1.024 1.6-3.52 0.085333-1.664 1.237333-3.114667 2.410666-3.114667 0.64 0 1.002667-0.874667 1.002667-2.474666 0-0.853333 0.384-1.6 1.344-2.56a8.533333 8.533333 0 0 0 1.856-2.773334c0.213333-0.746667 0.682667-1.386667 1.002667-1.386666 0.597333 0 1.792-1.706667 1.792-2.645334 0-1.834667 0.96-3.712 2.048-4.117333 0.96-0.32 1.152-0.64 1.152-1.770667 0-2.304 0.746667-3.84 2.197333-4.48 1.066667-0.426667 1.408-0.832 1.642667-2.069333a7.082667 7.082667 0 0 1 1.28-2.730667 13.397333 13.397333 0 0 0 1.706666-2.88 5.077333 5.077333 0 0 1 1.536-2.069333c0.469333-0.277333 0.917333-1.045333 1.024-1.962667 0.426667-2.389333 1.088-3.712 2.048-4.074666 0.64-0.234667 1.045333-0.917333 1.365334-2.090667 0.64-2.389333 1.28-3.562667 2.197333-4.053333 1.066667-0.618667 1.28-0.981333 1.6-2.56a9.728 9.728 0 0 1 1.642667-3.2 7.68 7.68 0 0 0 1.365333-2.346667c0-0.277333 0.512-1.066667 1.194667-1.792a11.946667 11.946667 0 0 0 1.877333-3.712c0.597333-1.92 0.917333-2.496 1.6-2.56 0.64-0.085333 0.96-0.618667 1.365333-2.090667a8.832 8.832 0 0 1 1.834667-3.413333 7.744 7.744 0 0 0 1.322667-1.706667c0-0.149333 0.725333-1.429333 1.6-2.88a20.949333 20.949333 0 0 0 2.026666-4.266666c0.256-0.96 0.682667-1.728 0.96-1.728 0.96 0 1.813333-1.237333 1.813334-2.602667 0-2.133333 0.64-3.328 2.154666-3.968 1.045333-0.426667 1.450667-0.853333 1.642667-1.92a8.256 8.256 0 0 1 1.365333-2.709333 10.176 10.176 0 0 0 1.557334-3.072c0.277333-0.96 0.682667-1.728 0.874666-1.728 0.725333 0 2.005333-1.770667 2.005334-2.794667 0-1.962667 0.789333-3.52 2.005333-3.968 0.917333-0.32 1.194667-0.682667 1.386667-1.92 0.32-1.962667 1.130667-3.434667 2.133333-3.925333 0.512-0.213333 0.981333-1.024 1.28-2.133334a11.029333 11.029333 0 0 1 1.557333-3.2 11.946667 11.946667 0 0 0 1.642667-2.944c0.213333-0.853333 0.64-1.514667 0.789333-1.514666 0.725333 0 1.92-1.706667 2.197334-3.072 0.405333-2.133333 1.045333-3.328 1.834666-3.328 0.448 0 0.810667-0.405333 0.96-1.152a11.114667 11.114667 0 0 1 1.962667-3.370667 19.136 19.136 0 0 0 2.197333-3.413333 3.754667 3.754667 0 0 1 1.578667-1.664 5.077333 5.077333 0 0 0 1.877333-1.706667 5.909333 5.909333 0 0 1 2.24-1.984 5.930667 5.930667 0 0 0 2.069334-1.621333 3.114667 3.114667 0 0 1 1.834666-1.216c1.450667-0.277333 4.053333-2.773333 4.053334-3.882667 0-0.789333 0.384-0.789333 21.589333-0.789333 20.885333 0 21.610667 0.042667 21.610667 0.768 0 0.917333 2.773333 3.52 4.16 3.861333 0.554667 0.128 1.344 0.853333 1.749333 1.536a3.029333 3.029333 0 0 0 2.005333 1.557333c0.874667 0.149333 1.6 0.746667 2.325334 1.877334 0.597333 0.874667 1.194667 1.6 1.386666 1.6 0.213333 0 0.725333 0.725333 1.173334 1.6 0.512 1.045333 1.066667 1.6 1.557333 1.6 1.066667 0 2.432 1.877333 2.432 3.349333 0 1.258667 1.194667 3.050667 2.005333 3.050667 0.213333 0 0.597333 0.768 0.853334 1.706666a9.386667 9.386667 0 0 0 1.578666 2.922667 7.616 7.616 0 0 1 1.322667 2.688c0.277333 1.514667 0.810667 2.133333 2.048 2.346667 1.002667 0.170667 1.792 1.728 1.792 3.541333 0 1.557333 0.234667 1.984 1.408 2.624 0.426667 0.256 1.066667 1.258667 1.386667 2.218667s1.28 2.837333 2.133333 4.16a14.933333 14.933333 0 0 1 1.493333 2.773333c0 0.256 0.384 0.618667 0.853334 0.810667 1.066667 0.490667 1.770667 1.685333 2.346666 4.117333 0.213333 0.96 0.704 1.856 1.109334 1.962667 0.917333 0.362667 1.194667 0.810667 1.877333 3.136a10.090667 10.090667 0 0 0 1.749333 3.306666c0.64 0.682667 1.28 1.770667 1.450667 2.410667 0.106667 0.64 0.746667 1.664 1.386667 2.282667a6.677333 6.677333 0 0 1 1.6 3.029333c0.32 1.237333 0.725333 2.005333 1.216 2.154667 0.96 0.32 1.792 1.685333 2.133333 3.52a6.4 6.4 0 0 0 1.856 3.050666c1.066667 1.024 1.6 1.92 1.6 2.624 0 1.322667 1.066667 3.413333 1.770667 3.413334 0.277333 0 0.746667 0.789333 1.024 1.749333a7.552 7.552 0 0 0 1.642666 2.88c0.64 0.597333 1.173333 1.493333 1.173334 1.92a3.882667 3.882667 0 0 0 2.026666 3.157333c1.194667 0.64 1.962667 2.090667 1.962667 3.968 0 1.194667 0.213333 1.557333 1.408 2.24 1.194667 0.725333 1.386667 1.130667 1.642667 2.837334 0.213333 1.834667 1.28 3.626667 2.133333 3.626666 0.170667 0 0.576 0.618667 0.810667 1.386667a9.045333 9.045333 0 0 0 1.813333 2.837333c1.002667 1.024 1.386667 1.834667 1.386667 2.709334 0 1.6 0.362667 2.133333 1.706666 2.645333 1.216 0.469333 1.92 1.792 1.92 3.754667 0 1.493333 0.298667 2.048 1.28 2.410666 0.384 0.106667 1.024 0.917333 1.386667 1.749334 0.384 0.853333 1.194667 2.154667 1.749333 2.922666a8.554667 8.554667 0 0 1 1.365334 2.88c0.213333 1.045333 0.725333 1.792 1.642666 2.517334 0.746667 0.554667 1.493333 1.514667 1.6 2.133333 0.554667 2.517333 1.045333 3.626667 1.685334 3.861333 0.96 0.298667 2.069333 2.282667 2.069333 3.690667 0 1.109333 1.237333 2.922667 2.005333 2.922667 0.149333 0 0.426667 0.554667 0.597334 1.194666a10.432 10.432 0 0 0 1.6 2.965334 10.56 10.56 0 0 1 1.6 2.986666 7.381333 7.381333 0 0 0 1.834666 2.837334c0.853333 0.853333 1.557333 1.856 1.557334 2.24 0 1.642667 0.917333 3.776 1.685333 3.776 0.853333 0 1.92 2.069333 1.92 3.669333 0.042667 1.066667 0.682667 2.005333 1.877333 2.645333 0.554667 0.32 1.002667 1.045333 1.173334 1.92a7.530667 7.530667 0 0 0 1.386666 2.773334c0.64 0.704 1.28 1.984 1.493334 2.816 0.192 1.130667 0.597333 1.728 1.344 2.048 1.365333 0.682667 1.962667 1.450667 2.005333 2.602666 0.042667 1.706667 0.768 3.477333 1.557333 3.712 0.810667 0.277333 1.685333 1.706667 2.133334 3.477334a7.338667 7.338667 0 0 0 1.152 2.218666 9.173333 9.173333 0 0 1 1.386666 2.389334c0.256 0.725333 1.088 1.877333 1.856 2.56 1.109333 0.96 1.429333 1.557333 1.429334 2.56 0 1.834667 0.362667 2.602667 1.237333 2.602666 0.917333 0 1.813333 1.365333 2.197333 3.349334 0.128 0.853333 0.768 2.090667 1.322667 2.816a13.717333 13.717333 0 0 1 1.642667 2.432 19.626667 19.626667 0 0 0 1.642666 2.602666 8.32 8.32 0 0 1 1.365334 2.645334 7.04 7.04 0 0 0 1.834666 2.88c1.002667 1.024 1.557333 1.984 1.557334 2.666666 0 1.450667 1.002667 3.242667 1.962666 3.52 0.512 0.128 0.917333 0.768 1.237334 1.92 0.725333 2.773333 1.514667 4.373333 2.154666 4.373334 0.32 0 0.810667 0.682667 1.088 1.493333a11.733333 11.733333 0 0 0 1.6 2.944c0.64 0.789333 1.152 1.706667 1.152 2.026667 0 1.28 0.853333 2.986667 1.706667 3.328 0.981333 0.426667 1.621333 1.6 2.304 4.074666 0.32 1.28 0.682667 1.770667 1.408 1.962667 0.981333 0.234667 1.792 2.048 1.792 4.053333 0 0.512 0.469333 1.28 1.194667 1.792a4.949333 4.949333 0 0 1 1.685333 2.517334c0.277333 0.874667 1.002667 2.133333 1.557333 2.773333 0.597333 0.661333 1.28 1.941333 1.514667 2.858667 0.32 1.28 0.725333 1.770667 1.6 2.176 1.216 0.469333 1.6 1.301333 1.642667 3.392 0.042667 1.429333 0.682667 2.389333 1.877333 2.773333 0.682667 0.192 1.066667 0.853333 1.536 2.432a12.970667 12.970667 0 0 0 1.834667 3.626667c0.64 0.810667 1.28 1.962667 1.429333 2.496a4.074667 4.074667 0 0 0 1.216 1.834666c0.512 0.469333 1.28 1.834667 1.706667 3.029334 0.426667 1.216 1.002667 2.282667 1.237333 2.346666 0.853333 0.298667 1.92 1.621333 2.176 2.666667l0.384 1.92a5.376 5.376 0 0 0 1.408 2.197333c0.64 0.725333 1.194667 1.514667 1.194667 1.792 0 0.32 0.426667 1.066667 0.96 1.685334a8.256 8.256 0 0 1 2.048 3.925333c0.106667 0.64 0.917333 1.792 1.749333 2.602667a5.973333 5.973333 0 0 1 2.005333 3.797333c0.405333 1.706667 0.682667 2.282667 1.194667 2.282667 0.810667 0 1.450667 1.194667 1.877333 3.349333a4.394667 4.394667 0 0 0 1.450667 2.432c0.64 0.533333 1.365333 1.557333 1.6 2.282667a12.224 12.224 0 0 0 1.493333 2.730666 13.397333 13.397333 0 0 1 1.621334 3.2c0.405333 1.194667 0.853333 1.834667 1.408 1.92 1.109333 0.213333 1.792 1.194667 1.792 2.709334 0 1.834667 0.725333 3.242667 1.792 3.52 0.938667 0.234667 1.813333 1.962667 1.813333 3.477333 0 1.216 0.789333 2.56 1.706667 2.986667 0.533333 0.213333 1.002667 0.981333 1.28 2.026666 0.213333 0.874667 0.896 2.197333 1.536 2.922667a4.906667 4.906667 0 0 1 1.066666 1.834667c0 1.28 0.917333 2.517333 2.048 2.773333 1.322667 0.213333 1.962667 1.472 1.962667 3.733333 0 1.770667 0.32 2.346667 1.365333 2.538667 0.512 0.106667 0.981333 0.832 1.429334 2.133333 0.725333 2.026667 3.157333 6.464 4.010666 7.210667 1.621333 1.493333 2.389333 2.410667 2.389334 2.965333 0 1.6 0.874667 3.52 1.706666 3.925334 0.618667 0.277333 1.130667 1.045333 1.450667 2.154666 0.597333 2.133333 1.706667 4.352 2.154667 4.352 0.170667 0 0.682667 0.810667 1.130666 1.813334 0.426667 0.96 1.194667 2.282667 1.749334 2.922666 0.533333 0.64 1.173333 1.962667 1.408 2.922667 0.277333 1.152 0.768 1.92 1.322666 2.133333 1.002667 0.490667 1.706667 1.728 2.325334 4.181334 0.277333 1.152 0.682667 1.792 1.194666 1.92 0.874667 0.234667 1.962667 2.026667 1.962667 3.264 0 1.258667 0.853333 2.816 1.642667 3.050666 0.426667 0.149333 0.917333 0.917333 1.152 1.834667a8.469333 8.469333 0 0 0 1.514666 2.837333c0.597333 0.64 1.322667 2.005333 1.6 2.986667 0.405333 1.344 0.725333 1.770667 1.536 1.984 1.152 0.277333 2.133333 2.154667 2.133334 4.053333 0 1.386667 0.384 1.92 1.450666 2.261334 0.896 0.277333 1.770667 2.24 1.770667 3.968 0 0.704 0.405333 1.344 1.194667 1.92 0.64 0.512 1.365333 1.493333 1.6 2.197333 0.234667 0.746667 1.066667 1.962667 1.834666 2.709333 1.002667 1.002667 1.365333 1.706667 1.365334 2.730667 0 1.685333 0.32 2.133333 1.685333 2.432 0.746667 0.213333 1.194667 0.682667 1.514667 1.642667a6.570667 6.570667 0 0 1 0.362666 1.92c-0.234667 1.066667 0.426667 2.645333 1.237334 2.837333 0.426667 0.128 1.130667 0.874667 1.514666 1.770667 0.362667 0.832 1.173333 2.133333 1.770667 2.922666a8.682667 8.682667 0 0 1 1.322667 2.901334c0.192 1.088 0.597333 1.706667 1.386666 2.090666 1.066667 0.554667 1.450667 1.194667 2.453334 4.565334 0.32 1.066667 0.789333 1.834667 1.237333 1.962666 0.917333 0.213333 1.92 2.069333 1.92 3.477334 0 0.64 0.469333 1.493333 1.152 2.197333 0.64 0.64 1.365333 1.706667 1.6 2.389333 0.234667 0.682667 0.96 1.92 1.557333 2.730667 0.64 0.789333 1.322667 2.069333 1.493334 2.794667a7.466667 7.466667 0 0 0 1.834666 2.88c0.853333 0.853333 1.557333 1.877333 1.557334 2.325333 0 1.344 0.853333 3.242667 1.557333 3.477333 0.810667 0.234667 2.048 2.602667 2.048 3.84 0 0.469333 0.597333 1.386667 1.344 2.133334 0.810667 0.704 1.578667 1.92 1.813333 2.858666a6.378667 6.378667 0 0 0 1.386667 2.517334 6.357333 6.357333 0 0 1 1.408 2.645333c0.277333 1.152 0.725333 1.834667 1.237333 2.005333a3.2 3.2 0 0 1 1.450667 1.237334c0.362667 0.512 1.002667 0.96 1.386667 0.96 1.130667 0 1.002667 1.493333-0.106667 1.706666l-0.917333 0.170667 0.917333 0.085333 0.853333 0.042667v19.989333c0 17.002667-0.064 20.010667-0.533333 20.010667-1.642667 0-3.050667 1.429333-4.096 4.117333-0.789333 2.026667-1.237333 2.709333-1.941333 2.922667-0.533333 0.106667-1.173333 0.746667-1.450667 1.429333a6.08 6.08 0 0 1-2.048 2.154667 5.824 5.824 0 0 0-1.92 1.962667 2.432 2.432 0 0 1-1.344 1.237333c-0.576 0.128-1.450667 0.853333-2.005333 1.557333a4.864 4.864 0 0 1-2.794667 1.770667c-1.962667 0.469333-3.456 1.962667-3.456 3.477333v0.96h-227.2v-0.853333z m-366.784-103.04a9.536 9.536 0 0 1-2.005333-1.514666c-1.152-1.088-1.792-1.365333-3.712-1.493334-1.962667-0.149333-2.496-0.362667-3.413333-1.429333a6.869333 6.869333 0 0 0-2.517334-1.642667c-0.789333-0.277333-1.685333-0.874667-1.962666-1.408a5.013333 5.013333 0 0 0-1.749334-1.642666 12.565333 12.565333 0 0 1-2.88-2.709334 46.144 46.144 0 0 0-3.050666-3.477333c-0.853333-0.810667-1.514667-1.685333-1.514667-1.92 0-0.277333-0.362667-0.490667-0.810667-0.490667C192 663.466667 192 663.168 192 646.058667c0-17.130667 0-17.408 0.789333-17.408 0.448 0 0.810667-0.213333 0.810667-0.426667s0.64-1.002667 1.429333-1.728a9.642667 9.642667 0 0 0 1.898667-2.282667 2.304 2.304 0 0 1 1.386667-1.066666c0.490667-0.085333 1.173333-0.64 1.493333-1.344a7.637333 7.637333 0 0 1 2.197333-2.197334c0.874667-0.597333 1.664-1.344 1.792-1.749333 0.128-0.426667 1.066667-1.002667 2.24-1.365333a8.277333 8.277333 0 0 0 2.922667-1.706667c0.768-0.896 1.408-1.130667 3.797333-1.365333 1.834667-0.213333 3.413333-0.64 4.330667-1.237334 0.832-0.490667 2.56-1.088 3.904-1.28 2.986667-0.533333 280.469333-0.597333 283.989333-0.085333 1.322667 0.213333 3.2 0.768 4.202667 1.322667 1.066667 0.597333 2.837333 1.066667 4.437333 1.28 2.197333 0.234667 2.922667 0.512 4.117334 1.514666a7.957333 7.957333 0 0 0 2.730666 1.642667c1.408 0.405333 5.482667 4.053333 6.272 5.589333 0.256 0.490667 0.853333 0.896 1.28 0.896 0.490667 0 1.130667 0.554667 1.642667 1.386667 0.426667 0.810667 1.322667 1.685333 1.92 2.005333 0.874667 0.426667 1.194667 0.96 1.408 2.282667 0.512 3.562667 0.597333 3.754667 1.792 4.202667 0.853333 0.32 1.194667 0.746667 1.408 1.749333 0.106667 0.768 0.213333 6.357333 0.106667 12.437333-0.106667 11.008-0.106667 11.136-0.981334 11.733334-0.533333 0.362667-0.938667 0.853333-0.938666 1.152a1.429333 1.429333 0 0 1-0.554667 1.002666c-0.277333 0.234667-0.64 1.152-0.789333 2.048-0.170667 1.024-0.576 1.792-1.216 2.197334a11.264 11.264 0 0 0-2.069334 2.304 14.165333 14.165333 0 0 1-2.325333 2.688 50.133333 50.133333 0 0 0-2.986667 2.730666 13.056 13.056 0 0 1-3.242666 2.304 7.210667 7.210667 0 0 0-2.24 1.642667c-0.682667 0.853333-1.237333 1.066667-3.2 1.237333-2.048 0.170667-2.56 0.362667-3.882667 1.642667l-1.514667 1.450667-146.688 0.064c-80.682667 0.042667-146.944-0.021333-147.264-0.149334z m4.266667-107.093333a13.461333 13.461333 0 0 0-5.802667-1.344c-3.221333-0.170667-3.584-0.277333-4.949333-1.514667a7.786667 7.786667 0 0 0-2.602667-1.557333c-2.048-0.448-2.922667-1.002667-3.328-2.005333-0.277333-0.682667-0.789333-1.066667-1.621333-1.28-0.853333-0.170667-1.6-0.725333-2.346667-1.770667a5.44 5.44 0 0 0-1.664-1.749333c-0.362667-0.128-0.917333-0.810667-1.194666-1.493334a3.52 3.52 0 0 0-1.834667-1.792c-0.768-0.277333-1.450667-0.789333-1.6-1.109333-0.128-0.32-0.576-0.618667-0.96-0.618667-0.725333 0-0.768-0.597333-0.768-17.6 0-16.469333 0.042667-17.578667 0.725333-17.578666 0.64-0.042667 1.792-1.536 3.904-5.056 1.28-2.133333 5.610667-6.08 7.018667-6.357334a6.72 6.72 0 0 0 2.666667-1.834666c1.045333-1.066667 1.813333-1.557333 2.602666-1.557334 1.557333 0 3.968-1.066667 4.757334-2.133333l0.682666-0.853333 148.394667-0.128 148.352-0.085334 1.194667 1.002667a9.642667 9.642667 0 0 0 4.970666 2.197333c0.512 0 1.685333 0.725333 2.645334 1.557334 0.917333 0.853333 2.133333 1.685333 2.624 1.792a6.848 6.848 0 0 1 2.346666 1.536c0.746667 0.704 1.856 1.621333 2.432 2.026666a14.933333 14.933333 0 0 1 2.837334 3.434667c0.96 1.536 1.962667 2.858667 2.133333 3.008 0.256 0.128 0.576 0.853333 0.704 1.557333a9.6 9.6 0 0 0 2.432 4.565334l1.045333 1.109333-0.170666 11.413333c-0.106667 11.882667-0.277333 12.864-1.92 13.397334-0.512 0.149333-0.832 0.725333-0.981334 1.706666-0.426667 2.346667-1.322667 4.096-2.410666 4.48-0.554667 0.213333-1.322667 1.002667-1.685334 1.813334-0.362667 0.746667-1.002667 1.493333-1.386666 1.642666-0.426667 0.106667-1.066667 0.853333-1.450667 1.6-0.405333 0.874667-1.002667 1.493333-1.685333 1.6-1.792 0.384-2.026667 0.512-2.709334 1.706667-0.490667 0.853333-1.152 1.322667-2.410666 1.642667a9.365333 9.365333 0 0 0-3.221334 1.813333c-1.536 1.344-1.6 1.386667-4.970666 1.386667-3.626667 0-5.162667 0.405333-6.528 1.642666-0.789333 0.768-2.752 0.768-141.354667 0.874667l-140.544 0.085333-2.346667-1.152z" fill="#13CE66" p-id="6325"></path></svg>