<?xml version="1.0" standalone="no"?><!DOCTYPE svg PUBLIC "-//W3C//DTD SVG 1.1//EN" "http://www.w3.org/Graphics/SVG/1.1/DTD/svg11.dtd"><svg t="1660547495112" class="icon" viewBox="0 0 1024 1024" version="1.1" xmlns="http://www.w3.org/2000/svg" p-id="5899" xmlns:xlink="http://www.w3.org/1999/xlink" width="200" height="200"><defs><style type="text/css">@font-face { font-family: feedback-iconfont; src: url("//at.alicdn.com/t/font_1031158_u69w8yhxdu.woff2?t=1630033759944") format("woff2"), url("//at.alicdn.com/t/font_1031158_u69w8yhxdu.woff?t=1630033759944") format("woff"), url("//at.alicdn.com/t/font_1031158_u69w8yhxdu.ttf?t=1630033759944") format("truetype"); }
</style></defs><path d="M512 512m-512 0a512 512 0 1 0 1024 0 512 512 0 1 0-1024 0Z" fill="#D2E2FE" p-id="5900"></path><path d="M365.866667 319.872s63.936 52.970667 146.133333 52.970667c82.197333 0 147.946667-52.970667 147.946667-52.970667s71.253333-63.936 34.709333-91.349333c-36.522667-27.392-91.306667 9.152-91.306667 9.152S561.301333 192 512 192c-49.322667 0-89.514667 45.653333-89.514667 45.653333s-54.784-36.522667-91.306666-9.130666c-36.544 27.413333 34.688 91.349333 34.688 91.349333z m449.344 352.533333s23.744-69.418667-31.04-182.677333c-58.453333-118.72-137.002667-120.533333-137.002667-120.533333s-58.453333 36.522667-135.168 36.522666-133.333333-36.544-133.333333-36.544-80.384 0-138.837334 122.389334c-52.970667 109.589333-31.04 182.656-31.04 182.656S84.565333 831.317333 512 831.317333s303.210667-158.933333 303.210667-158.933333z" fill="#3C82FE" p-id="5901"></path></svg>