<?xml version="1.0" standalone="no"?><!DOCTYPE svg PUBLIC "-//W3C//DTD SVG 1.1//EN" "http://www.w3.org/Graphics/SVG/1.1/DTD/svg11.dtd"><svg t="1660547509580" class="icon" viewBox="0 0 1024 1024" version="1.1" xmlns="http://www.w3.org/2000/svg" p-id="6181" xmlns:xlink="http://www.w3.org/1999/xlink" width="200" height="200"><defs><style type="text/css">@font-face { font-family: feedback-iconfont; src: url("//at.alicdn.com/t/font_1031158_u69w8yhxdu.woff2?t=1630033759944") format("woff2"), url("//at.alicdn.com/t/font_1031158_u69w8yhxdu.woff?t=1630033759944") format("woff"), url("//at.alicdn.com/t/font_1031158_u69w8yhxdu.ttf?t=1630033759944") format("truetype"); }
</style></defs><path d="M512 512m-512 0a512 512 0 1 0 1024 0 512 512 0 1 0-1024 0Z" fill="#FFECEC" p-id="6182"></path><path d="M208 265.856v86.762667a57.813333 57.813333 0 0 0 57.792 57.856h214.997333V208H265.813333a57.813333 57.813333 0 0 0-57.792 57.856zM742.016 208H527.04v202.453333h214.976a57.813333 57.813333 0 0 0 57.792-57.834666v-86.762667a57.813333 57.813333 0 0 0-57.813333-57.856z m56.085333 358.08l2.304 0.064V511.146667a57.813333 57.813333 0 0 0-57.813333-57.856H266.410667a57.813333 57.813333 0 0 0-57.813334 57.856v52.202666a63.616 63.616 0 1 1 0 127.018667v52.181333a57.834667 57.834667 0 0 0 57.813334 57.856H742.613333a57.813333 57.813333 0 0 0 57.792-57.856V693.333333h-2.304a63.616 63.616 0 0 1 0-127.232v-0.021333zM404.48 707.84a80.96 80.96 0 1 1 0.064-161.92 80.96 80.96 0 0 1-0.042667 161.92h-0.021333z m196.501333 0a80.96 80.96 0 1 1 0.149334-161.92 80.96 80.96 0 0 1-0.149334 161.92z" fill="#FF554C" p-id="6183"></path><path d="M287.424 540.373333v34.730667a26.026667 26.026667 0 0 1 0 52.010667v34.730666a60.714667 60.714667 0 0 0 0-121.429333v-0.042667z m441.258667 34.709334c0.853333 0 1.728 0.064 2.602666 0.128v-34.773334a60.714667 60.714667 0 1 0 0 121.365334V626.986667a26.026667 26.026667 0 1 1-2.602666-51.925334v0.021334z" fill="#FF554C" p-id="6184"></path></svg>