<?xml version="1.0" standalone="no"?><!DOCTYPE svg PUBLIC "-//W3C//DTD SVG 1.1//EN" "http://www.w3.org/Graphics/SVG/1.1/DTD/svg11.dtd"><svg t="1660875267840" class="icon" viewBox="0 0 1024 1024" version="1.1" xmlns="http://www.w3.org/2000/svg" p-id="5538" xmlns:xlink="http://www.w3.org/1999/xlink" width="200" height="200"><defs><style type="text/css">@font-face { font-family: feedback-iconfont; src: url("//at.alicdn.com/t/font_1031158_u69w8yhxdu.woff2?t=1630033759944") format("woff2"), url("//at.alicdn.com/t/font_1031158_u69w8yhxdu.woff?t=1630033759944") format("woff"), url("//at.alicdn.com/t/font_1031158_u69w8yhxdu.ttf?t=1630033759944") format("truetype"); }
</style></defs><path d="M512 512m-512 0a512 512 0 1 0 1024 0 512 512 0 1 0-1024 0Z" fill="#DCE5ED" p-id="5539"></path><path d="M478.826667 246.506667v132.757333c0 18.346667-14.848 33.173333-33.216 33.173333h-199.104A33.173333 33.173333 0 0 1 213.333333 379.264v-132.757333c0-18.325333 14.848-33.173333 33.173334-33.173334h199.104c18.325333 0 33.216 14.848 33.216 33.173334z m-33.216 232.32h-199.104c-18.325333 0-33.173333 14.848-33.173334 33.173333v265.493333c0 18.325333 14.848 33.173333 33.173334 33.173334h199.104c18.325333 0 33.216-14.848 33.216-33.173334V512a33.173333 33.173333 0 0 0-33.216-33.173333z m331.882666 132.736h-199.104a33.173333 33.173333 0 0 0-33.216 33.173333v132.757333c0 18.325333 14.848 33.173333 33.216 33.173334h199.104c18.325333 0 33.173333-14.848 33.173334-33.173334v-132.757333c0-18.346667-14.848-33.173333-33.173334-33.173333z m0-398.229334h-199.104a33.173333 33.173333 0 0 0-33.216 33.173334V512c0 18.325333 14.848 33.173333 33.216 33.173333h199.104c18.325333 0 33.173333-14.848 33.173334-33.173333V246.506667c0-18.325333-14.848-33.173333-33.173334-33.173334z" fill="#5A78A0" p-id="5540"></path></svg>